<svg xmlns="http://www.w3.org/2000/svg" xmlns:xlink="http://www.w3.org/1999/xlink" version="1.1" class="marks" width="1204" height="450" viewBox="0 0 1204 450"><rect width="1204" height="450" fill="white"/><g fill="none" stroke-miterlimit="10" transform="translate(5,5)"><g class="mark-group role-frame root" role="graphics-object" aria-roledescription="group mark container"><g transform="translate(0,0)"><path class="background" aria-hidden="true" d="M0.5,0.5h1000v400h-1000Z" stroke="#ddd"/><g><g class="mark-group role-axis" role="graphics-symbol" aria-roledescription="axis" aria-label="X-axis titled 'YearOfInvestment' for a discrete scale with 10 values: 2012, 2013, 2014, 2015, 2016, ending with 2021"><g transform="translate(0.5,400.5)"><path class="background" aria-hidden="true" d="M0,0h0v0h0Z" pointer-events="none"/><g><g class="mark-rule role-axis-tick" pointer-events="none"><line transform="translate(50,0)" x2="0" y2="0" stroke="#888" stroke-width="1" opacity="1"/><line transform="translate(150,0)" x2="0" y2="0" stroke="#888" stroke-width="1" opacity="1"/><line transform="translate(250,0)" x2="0" y2="0" stroke="#888" stroke-width="1" opacity="1"/><line transform="translate(350,0)" x2="0" y2="0" stroke="#888" stroke-width="1" opacity="1"/><line transform="translate(450,0)" x2="0" y2="0" stroke="#888" stroke-width="1" opacity="1"/><line transform="translate(550,0)" x2="0" y2="0" stroke="#888" stroke-width="1" opacity="1"/><line transform="translate(650,0)" x2="0" y2="0" stroke="#888" stroke-width="1" opacity="1"/><line transform="translate(750,0)" x2="0" y2="0" stroke="#888" stroke-width="1" opacity="1"/><line transform="translate(850,0)" x2="0" y2="0" stroke="#888" stroke-width="1" opacity="1"/><line transform="translate(950,0)" x2="0" y2="0" stroke="#888" stroke-width="1" opacity="1"/></g><g class="mark-text role-axis-label" pointer-events="none"><text text-anchor="end" transform="translate(50,2) rotate(270) translate(0,3)" font-family="sans-serif" font-size="10px" fill="#000" opacity="1">2012</text><text text-anchor="end" transform="translate(150,2) rotate(270) translate(0,3)" font-family="sans-serif" font-size="10px" fill="#000" opacity="1">2013</text><text text-anchor="end" transform="translate(250,2) rotate(270) translate(0,3)" font-family="sans-serif" font-size="10px" fill="#000" opacity="1">2014</text><text text-anchor="end" transform="translate(350,2) rotate(270) translate(0,3)" font-family="sans-serif" font-size="10px" fill="#000" opacity="1">2015</text><text text-anchor="end" transform="translate(450,2) rotate(270) translate(0,3)" font-family="sans-serif" font-size="10px" fill="#000" opacity="1">2016</text><text text-anchor="end" transform="translate(550,2) rotate(270) translate(0,3)" font-family="sans-serif" font-size="10px" fill="#000" opacity="1">2017</text><text text-anchor="end" transform="translate(650,2) rotate(270) translate(0,3)" font-family="sans-serif" font-size="10px" fill="#000" opacity="1">2018</text><text text-anchor="end" transform="translate(750,2) rotate(270) translate(0,3)" font-family="sans-serif" font-size="10px" fill="#000" opacity="1">2019</text><text text-anchor="end" transform="translate(850,2) rotate(270) translate(0,3)" font-family="sans-serif" font-size="10px" fill="#000" opacity="1">2020</text><text text-anchor="end" transform="translate(950,2) rotate(270) translate(0,3)" font-family="sans-serif" font-size="10px" fill="#000" opacity="1">2021</text></g><g class="mark-text role-axis-title" pointer-events="none"><text text-anchor="middle" transform="translate(500,37.24609375)" font-family="sans-serif" font-size="11px" font-weight="bold" fill="#000" opacity="1">YearOfInvestment</text></g></g><path class="foreground" aria-hidden="true" d="" pointer-events="none" display="none"/></g></g><g class="mark-group role-scope pathgroup" role="graphics-object" aria-roledescription="group mark container"><g transform="translate(0,0)"><path class="background" aria-hidden="true" d="M0,0h1000v400h-1000Z"/><g><g class="mark-area role-mark marks" role="graphics-symbol" aria-roledescription="area mark container"><path d="M50,346.6666666666667L150,373.3333333333333L250,333.33333333333337L350,306.66666666666663L450,226.66666666666666L550,213.33333333333334L650,160L750,93.33333333333331L850,26.66666666666666L950,0L950,0L850,26.66666666666666L750,93.33333333333331L650,160L550,213.33333333333334L450,226.66666666666666L350,320L250,333.33333333333337L150,373.3333333333333L50,346.6666666666667Z" fill="#fdc086" opacity="1"/></g></g><path class="foreground" aria-hidden="true" d="" display="none"/></g><g transform="translate(0,0)"><path class="background" aria-hidden="true" d="M0,0h1000v400h-1000Z"/><g><g class="mark-area role-mark marks" role="graphics-symbol" aria-roledescription="area mark container"><path d="M50,346.6666666666667L150,373.3333333333333L250,333.33333333333337L350,320L450,226.66666666666666L550,213.33333333333334L650,173.33333333333334L750,120.00000000000001L850,26.66666666666666L950,0L950,346.6666666666667L850,306.66666666666663L750,360L650,373.3333333333333L550,360L450,346.6666666666667L350,400L250,373.3333333333333L150,400L50,373.3333333333333Z" fill="#f0027f" opacity="1"/></g></g><path class="foreground" aria-hidden="true" d="" display="none"/></g><g transform="translate(0,0)"><path class="background" aria-hidden="true" d="M0,0h1000v400h-1000Z"/><g><g class="mark-area role-mark marks" role="graphics-symbol" aria-roledescription="area mark container"><path d="M50,373.3333333333333L150,400L250,373.3333333333333L350,400L450,373.3333333333333L550,386.6666666666667L650,373.3333333333333L750,400L850,306.66666666666663L950,360L950,360L850,306.66666666666663L750,400L650,373.3333333333333L550,386.6666666666667L450,373.3333333333333L350,400L250,373.3333333333333L150,400L50,386.6666666666667Z" fill="#ffff99" opacity="1"/></g></g><path class="foreground" aria-hidden="true" d="" display="none"/></g><g transform="translate(0,0)"><path class="background" aria-hidden="true" d="M0,0h1000v400h-1000Z"/><g><g class="mark-area role-mark marks" role="graphics-symbol" aria-roledescription="area mark container"><path d="M50,386.6666666666667L150,400L250,400L350,400L450,400L550,386.6666666666667L650,400L750,400L850,360L950,373.3333333333333L950,373.3333333333333L850,360L750,400L650,400L550,386.6666666666667L450,400L350,400L250,400L150,400L50,400Z" fill="#7fc97f" opacity="1"/></g></g><path class="foreground" aria-hidden="true" d="" display="none"/></g><g transform="translate(0,0)"><path class="background" aria-hidden="true" d="M0,0h1000v400h-1000Z"/><g><g class="mark-area role-mark marks" role="graphics-symbol" aria-roledescription="area mark container"><path d="M50,346.6666666666667L150,360L250,333.33333333333337L350,306.66666666666663L450,226.66666666666666L550,213.33333333333334L650,160L750,93.33333333333331L850,13.33333333333333L950,0L950,0L850,13.33333333333333L750,93.33333333333331L650,160L550,213.33333333333334L450,226.66666666666666L350,306.66666666666663L250,333.33333333333337L150,373.3333333333333L50,346.6666666666667Z" fill="#7fc97f" opacity="1"/></g></g><path class="foreground" aria-hidden="true" d="" display="none"/></g><g transform="translate(0,0)"><path class="background" aria-hidden="true" d="M0,0h1000v400h-1000Z"/><g><g class="mark-area role-mark marks" role="graphics-symbol" aria-roledescription="area mark container"><path d="M50,400L150,400L250,400L350,400L450,400L550,386.6666666666667L650,400L750,400L850,373.3333333333333L950,373.3333333333333L950,373.3333333333333L850,373.3333333333333L750,400L650,400L550,386.6666666666667L450,400L350,400L250,400L150,400L50,400Z" fill="#fdc086" opacity="1"/></g></g><path class="foreground" aria-hidden="true" d="" display="none"/></g><g transform="translate(0,0)"><path class="background" aria-hidden="true" d="M0,0h1000v400h-1000Z"/><g><g class="mark-area role-mark marks" role="graphics-symbol" aria-roledescription="area mark container"><path d="M50,400L150,400L250,400L350,400L450,400L550,386.6666666666667L650,400L750,400L850,373.3333333333333L950,373.3333333333333L950,373.3333333333333L850,400L750,400L650,400L550,400L450,400L350,400L250,400L150,400L50,400Z" fill="#ffff99" opacity="1"/></g></g><path class="foreground" aria-hidden="true" d="" display="none"/></g><g transform="translate(0,0)"><path class="background" aria-hidden="true" d="M0,0h1000v400h-1000Z"/><g><g class="mark-area role-mark marks" role="graphics-symbol" aria-roledescription="area mark container"><path d="M50,386.6666666666667L150,400L250,373.3333333333333L350,400L450,373.3333333333333L550,386.6666666666667L650,373.3333333333333L750,400L850,306.66666666666663L950,360L950,360L850,306.66666666666663L750,400L650,373.3333333333333L550,386.6666666666667L450,373.3333333333333L350,400L250,386.6666666666667L150,400L50,386.6666666666667Z" fill="#386cb0" opacity="1"/></g></g><path class="foreground" aria-hidden="true" d="" display="none"/></g><g transform="translate(0,0)"><path class="background" aria-hidden="true" d="M0,0h1000v400h-1000Z"/><g><g class="mark-area role-mark marks" role="graphics-symbol" aria-roledescription="area mark container"><path d="M50,386.6666666666667L150,400L250,386.6666666666667L350,400L450,386.6666666666667L550,386.6666666666667L650,373.3333333333333L750,400L850,306.66666666666663L950,360L950,360L850,360L750,400L650,400L550,386.6666666666667L450,400L350,400L250,400L150,400L50,386.6666666666667Z" fill="#bf5b17" opacity="1"/></g></g><path class="foreground" aria-hidden="true" d="" display="none"/></g><g transform="translate(0,0)"><path class="background" aria-hidden="true" d="M0,0h1000v400h-1000Z"/><g><g class="mark-area role-mark marks" role="graphics-symbol" aria-roledescription="area mark container"><path d="M50,373.3333333333333L150,400L250,373.3333333333333L350,400L450,346.6666666666667L550,360L650,373.3333333333333L750,360L850,306.66666666666663L950,346.6666666666667L950,346.6666666666667L850,306.66666666666663L750,360L650,373.3333333333333L550,386.6666666666667L450,360L350,400L250,373.3333333333333L150,400L50,373.3333333333333Z" fill="#bf5b17" opacity="1"/></g></g><path class="foreground" aria-hidden="true" d="" display="none"/></g><g transform="translate(0,0)"><path class="background" aria-hidden="true" d="M0,0h1000v400h-1000Z"/><g><g class="mark-area role-mark marks" role="graphics-symbol" aria-roledescription="area mark container"><path d="M50,373.3333333333333L150,400L250,373.3333333333333L350,400L450,360L550,386.6666666666667L650,373.3333333333333L750,373.3333333333333L850,306.66666666666663L950,360L950,360L850,306.66666666666663L750,400L650,373.3333333333333L550,386.6666666666667L450,373.3333333333333L350,400L250,373.3333333333333L150,400L50,373.3333333333333Z" fill="#fdc086" opacity="1"/></g></g><path class="foreground" aria-hidden="true" d="" display="none"/></g><g transform="translate(0,0)"><path class="background" aria-hidden="true" d="M0,0h1000v400h-1000Z"/><g><g class="mark-area role-mark marks" role="graphics-symbol" aria-roledescription="area mark container"><path d="M50,386.6666666666667L150,400L250,386.6666666666667L350,400L450,373.3333333333333L550,386.6666666666667L650,373.3333333333333L750,400L850,306.66666666666663L950,360L950,360L850,306.66666666666663L750,400L650,373.3333333333333L550,386.6666666666667L450,386.6666666666667L350,400L250,386.6666666666667L150,400L50,386.6666666666667Z" fill="#f0027f" opacity="1"/></g></g><path class="foreground" aria-hidden="true" d="" display="none"/></g><g transform="translate(0,0)"><path class="background" aria-hidden="true" d="M0,0h1000v400h-1000Z"/><g><g class="mark-area role-mark marks" role="graphics-symbol" aria-roledescription="area mark container"><path d="M50,346.6666666666667L150,373.3333333333333L250,333.33333333333337L350,320L450,226.66666666666666L550,213.33333333333334L650,173.33333333333334L750,120.00000000000001L850,26.66666666666666L950,0L950,0L850,26.66666666666666L750,120.00000000000001L650,173.33333333333334L550,213.33333333333334L450,226.66666666666666L350,320L250,333.33333333333337L150,373.3333333333333L50,346.6666666666667Z" fill="#386cb0" opacity="1"/></g></g><path class="foreground" aria-hidden="true" d="" display="none"/></g><g transform="translate(0,0)"><path class="background" aria-hidden="true" d="M0,0h1000v400h-1000Z"/><g><g class="mark-area role-mark marks" role="graphics-symbol" aria-roledescription="area mark container"><path d="M50,346.6666666666667L150,373.3333333333333L250,333.33333333333337L350,320L450,226.66666666666666L550,213.33333333333334L650,160L750,93.33333333333331L850,26.66666666666666L950,0L950,0L850,26.66666666666666L750,120.00000000000001L650,173.33333333333334L550,213.33333333333334L450,226.66666666666666L350,320L250,333.33333333333337L150,373.3333333333333L50,346.6666666666667Z" fill="#ffff99" opacity="1"/></g></g><path class="foreground" aria-hidden="true" d="" display="none"/></g><g transform="translate(0,0)"><path class="background" aria-hidden="true" d="M0,0h1000v400h-1000Z"/><g><g class="mark-area role-mark marks" role="graphics-symbol" aria-roledescription="area mark container"><path d="M50,373.3333333333333L150,400L250,373.3333333333333L350,400L450,360L550,386.6666666666667L650,373.3333333333333L750,373.3333333333333L850,306.66666666666663L950,346.6666666666667L950,346.6666666666667L850,306.66666666666663L750,373.3333333333333L650,373.3333333333333L550,386.6666666666667L450,360L350,400L250,373.3333333333333L150,400L50,373.3333333333333Z" fill="#7fc97f" opacity="1"/></g></g><path class="foreground" aria-hidden="true" d="" display="none"/></g><g transform="translate(0,0)"><path class="background" aria-hidden="true" d="M0,0h1000v400h-1000Z"/><g><g class="mark-area role-mark marks" role="graphics-symbol" aria-roledescription="area mark container"><path d="M50,373.3333333333333L150,400L250,373.3333333333333L350,400L450,360L550,386.6666666666667L650,373.3333333333333L750,360L850,306.66666666666663L950,346.6666666666667L950,346.6666666666667L850,306.66666666666663L750,373.3333333333333L650,373.3333333333333L550,386.6666666666667L450,360L350,400L250,373.3333333333333L150,400L50,373.3333333333333Z" fill="#666666" opacity="1"/></g></g><path class="foreground" aria-hidden="true" d="" display="none"/></g><g transform="translate(0,0)"><path class="background" aria-hidden="true" d="M0,0h1000v400h-1000Z"/><g><g class="mark-area role-mark marks" role="graphics-symbol" aria-roledescription="area mark container"><path d="M50,346.6666666666667L150,373.3333333333333L250,333.33333333333337L350,306.66666666666663L450,226.66666666666666L550,213.33333333333334L650,160L750,93.33333333333331L850,13.33333333333333L950,0L950,0L850,26.66666666666666L750,93.33333333333331L650,160L550,213.33333333333334L450,226.66666666666666L350,306.66666666666663L250,333.33333333333337L150,373.3333333333333L50,346.6666666666667Z" fill="#beaed4" opacity="1"/></g></g><path class="foreground" aria-hidden="true" d="" display="none"/></g><g transform="translate(0,0)"><path class="background" aria-hidden="true" d="M0,0h1000v400h-1000Z"/><g><g class="mark-area role-mark marks" role="graphics-symbol" aria-roledescription="area mark container"><path d="M50,400L150,400L250,400L350,400L450,400L550,386.6666666666667L650,400L750,400L850,360L950,373.3333333333333L950,373.3333333333333L850,373.3333333333333L750,400L650,400L550,386.6666666666667L450,400L350,400L250,400L150,400L50,400Z" fill="#beaed4" opacity="1"/></g></g><path class="foreground" aria-hidden="true" d="" display="none"/></g><g transform="translate(0,0)"><path class="background" aria-hidden="true" d="M0,0h1000v400h-1000Z"/><g><g class="mark-area role-mark marks" role="graphics-symbol" aria-roledescription="area mark container"><path d="M50,373.3333333333333L150,400L250,373.3333333333333L350,400L450,360L550,386.6666666666667L650,373.3333333333333L750,373.3333333333333L850,306.66666666666663L950,346.6666666666667L950,360L850,306.66666666666663L750,373.3333333333333L650,373.3333333333333L550,386.6666666666667L450,360L350,400L250,373.3333333333333L150,400L50,373.3333333333333Z" fill="#beaed4" opacity="1"/></g></g><path class="foreground" aria-hidden="true" d="" display="none"/></g><g transform="translate(0,0)"><path class="background" aria-hidden="true" d="M0,0h1000v400h-1000Z"/><g><g class="mark-area role-mark marks" role="graphics-symbol" aria-roledescription="area mark container"><path d="M50,386.6666666666667L150,400L250,400L350,400L450,400L550,386.6666666666667L650,400L750,400L850,360L950,360L950,373.3333333333333L850,360L750,400L650,400L550,386.6666666666667L450,400L350,400L250,400L150,400L50,386.6666666666667Z" fill="#666666" opacity="1"/></g></g><path class="foreground" aria-hidden="true" d="" display="none"/></g><g transform="translate(0,0)"><path class="background" aria-hidden="true" d="M0,0h1000v400h-1000Z"/><g><g class="mark-area role-mark marks" role="graphics-symbol" aria-roledescription="area mark container"><path d="M50,400L150,400L250,400L350,400L450,400L550,400L650,400L750,400L850,400L950,373.3333333333333L950,386.6666666666667L850,400L750,400L650,400L550,400L450,400L350,400L250,400L150,400L50,400Z" fill="#386cb0" opacity="1"/></g></g><path class="foreground" aria-hidden="true" d="" display="none"/></g><g transform="translate(0,0)"><path class="background" aria-hidden="true" d="M0,0h1000v400h-1000Z"/><g><g class="mark-area role-mark marks" role="graphics-symbol" aria-roledescription="area mark container"><path d="M50,400L150,400L250,400L350,400L450,400L550,400L650,400L750,400L850,400L950,386.6666666666667L950,400L850,400L750,400L650,400L550,400L450,400L350,400L250,400L150,400L50,400Z" fill="#f0027f" opacity="1"/></g></g><path class="foreground" aria-hidden="true" d="" display="none"/></g></g><g class="mark-group role-legend" role="graphics-symbol" aria-roledescription="legend" aria-label="Symbol legend titled 'countries' for fill color with 22 values: Australia, Germany, UK, Singapore, USA, Japan, Austria, Brazil, Denmark, France, Peru, USA, ending with United States, United Kingdom"><g transform="translate(1018,0)"><path class="background" aria-hidden="true" d="M0,0h176v300h-176Z" pointer-events="none"/><g><g class="mark-group role-legend-entry"><g transform="translate(0,16)"><path class="background" aria-hidden="true" d="M0,0h0v0h0Z" pointer-events="none"/><g><g class="mark-group role-scope countries_legend_entries" role="graphics-object" aria-roledescription="group mark container"><g transform="translate(0,0)"><path class="background" aria-hidden="true" d="M0,0h175.8779296875v11h-175.8779296875Z" opacity="1"/><g><g class="mark-symbol role-legend-symbol countries_legend_symbols"><path transform="translate(6,6)" d="M5,0A5,5,0,1,1,-5,0A5,5,0,1,1,5,0" fill="#7fc97f" stroke-width="1.5" opacity="1"/></g><g class="mark-text role-legend-label countries_legend_labels"><text text-anchor="start" transform="translate(16,9)" font-family="sans-serif" font-size="10px" fill="#000" opacity="1">Australia, Germany, UK, Singapor…</text></g></g><path class="foreground" aria-hidden="true" d="" display="none"/></g><g transform="translate(0,13)"><path class="background" aria-hidden="true" d="M0,0h175.8779296875v11h-175.8779296875Z" opacity="1"/><g><g class="mark-symbol role-legend-symbol countries_legend_symbols"><path transform="translate(6,6)" d="M5,0A5,5,0,1,1,-5,0A5,5,0,1,1,5,0" fill="#beaed4" stroke-width="1.5" opacity="1"/></g><g class="mark-text role-legend-label countries_legend_labels"><text text-anchor="start" transform="translate(16,9)" font-family="sans-serif" font-size="10px" fill="#000" opacity="1">Austria</text></g></g><path class="foreground" aria-hidden="true" d="" display="none"/></g><g transform="translate(0,26)"><path class="background" aria-hidden="true" d="M0,0h175.8779296875v11h-175.8779296875Z" opacity="1"/><g><g class="mark-symbol role-legend-symbol countries_legend_symbols"><path transform="translate(6,6)" d="M5,0A5,5,0,1,1,-5,0A5,5,0,1,1,5,0" fill="#fdc086" stroke-width="1.5" opacity="1"/></g><g class="mark-text role-legend-label countries_legend_labels"><text text-anchor="start" transform="translate(16,9)" font-family="sans-serif" font-size="10px" fill="#000" opacity="1">Brazil</text></g></g><path class="foreground" aria-hidden="true" d="" display="none"/></g><g transform="translate(0,39)"><path class="background" aria-hidden="true" d="M0,0h175.8779296875v11h-175.8779296875Z" opacity="1"/><g><g class="mark-symbol role-legend-symbol countries_legend_symbols"><path transform="translate(6,6)" d="M5,0A5,5,0,1,1,-5,0A5,5,0,1,1,5,0" fill="#ffff99" stroke-width="1.5" opacity="1"/></g><g class="mark-text role-legend-label countries_legend_labels"><text text-anchor="start" transform="translate(16,9)" font-family="sans-serif" font-size="10px" fill="#000" opacity="1">Denmark</text></g></g><path class="foreground" aria-hidden="true" d="" display="none"/></g><g transform="translate(0,52)"><path class="background" aria-hidden="true" d="M0,0h175.8779296875v11h-175.8779296875Z" opacity="1"/><g><g class="mark-symbol role-legend-symbol countries_legend_symbols"><path transform="translate(6,6)" d="M5,0A5,5,0,1,1,-5,0A5,5,0,1,1,5,0" fill="#386cb0" stroke-width="1.5" opacity="1"/></g><g class="mark-text role-legend-label countries_legend_labels"><text text-anchor="start" transform="translate(16,9)" font-family="sans-serif" font-size="10px" fill="#000" opacity="1">France, Peru, USA</text></g></g><path class="foreground" aria-hidden="true" d="" display="none"/></g><g transform="translate(0,65)"><path class="background" aria-hidden="true" d="M0,0h175.8779296875v11h-175.8779296875Z" opacity="1"/><g><g class="mark-symbol role-legend-symbol countries_legend_symbols"><path transform="translate(6,6)" d="M5,0A5,5,0,1,1,-5,0A5,5,0,1,1,5,0" fill="#f0027f" stroke-width="1.5" opacity="1"/></g><g class="mark-text role-legend-label countries_legend_labels"><text text-anchor="start" transform="translate(16,9)" font-family="sans-serif" font-size="10px" fill="#000" opacity="1">Germany</text></g></g><path class="foreground" aria-hidden="true" d="" display="none"/></g><g transform="translate(0,78)"><path class="background" aria-hidden="true" d="M0,0h175.8779296875v11h-175.8779296875Z" opacity="1"/><g><g class="mark-symbol role-legend-symbol countries_legend_symbols"><path transform="translate(6,6)" d="M5,0A5,5,0,1,1,-5,0A5,5,0,1,1,5,0" fill="#bf5b17" stroke-width="1.5" opacity="1"/></g><g class="mark-text role-legend-label countries_legend_labels"><text text-anchor="start" transform="translate(16,9)" font-family="sans-serif" font-size="10px" fill="#000" opacity="1">Germany, USA</text></g></g><path class="foreground" aria-hidden="true" d="" display="none"/></g><g transform="translate(0,91)"><path class="background" aria-hidden="true" d="M0,0h175.8779296875v11h-175.8779296875Z" opacity="1"/><g><g class="mark-symbol role-legend-symbol countries_legend_symbols"><path transform="translate(6,6)" d="M5,0A5,5,0,1,1,-5,0A5,5,0,1,1,5,0" fill="#666666" stroke-width="1.5" opacity="1"/></g><g class="mark-text role-legend-label countries_legend_labels"><text text-anchor="start" transform="translate(16,9)" font-family="sans-serif" font-size="10px" fill="#000" opacity="1">Italy</text></g></g><path class="foreground" aria-hidden="true" d="" display="none"/></g><g transform="translate(0,104)"><path class="background" aria-hidden="true" d="M0,0h175.8779296875v11h-175.8779296875Z" opacity="1"/><g><g class="mark-symbol role-legend-symbol countries_legend_symbols"><path transform="translate(6,6)" d="M5,0A5,5,0,1,1,-5,0A5,5,0,1,1,5,0" fill="#7fc97f" stroke-width="1.5" opacity="1"/></g><g class="mark-text role-legend-label countries_legend_labels"><text text-anchor="start" transform="translate(16,9)" font-family="sans-serif" font-size="10px" fill="#000" opacity="1">Japan, Germany, USA</text></g></g><path class="foreground" aria-hidden="true" d="" display="none"/></g><g transform="translate(0,117)"><path class="background" aria-hidden="true" d="M0,0h175.8779296875v11h-175.8779296875Z" opacity="1"/><g><g class="mark-symbol role-legend-symbol countries_legend_symbols"><path transform="translate(6,6)" d="M5,0A5,5,0,1,1,-5,0A5,5,0,1,1,5,0" fill="#beaed4" stroke-width="1.5" opacity="1"/></g><g class="mark-text role-legend-label countries_legend_labels"><text text-anchor="start" transform="translate(16,9)" font-family="sans-serif" font-size="10px" fill="#000" opacity="1">Remote</text></g></g><path class="foreground" aria-hidden="true" d="" display="none"/></g><g transform="translate(0,130)"><path class="background" aria-hidden="true" d="M0,0h175.8779296875v11h-175.8779296875Z" opacity="1"/><g><g class="mark-symbol role-legend-symbol countries_legend_symbols"><path transform="translate(6,6)" d="M5,0A5,5,0,1,1,-5,0A5,5,0,1,1,5,0" fill="#fdc086" stroke-width="1.5" opacity="1"/></g><g class="mark-text role-legend-label countries_legend_labels"><text text-anchor="start" transform="translate(16,9)" font-family="sans-serif" font-size="10px" fill="#000" opacity="1">Sweden</text></g></g><path class="foreground" aria-hidden="true" d="" display="none"/></g><g transform="translate(0,143)"><path class="background" aria-hidden="true" d="M0,0h175.8779296875v11h-175.8779296875Z" opacity="1"/><g><g class="mark-symbol role-legend-symbol countries_legend_symbols"><path transform="translate(6,6)" d="M5,0A5,5,0,1,1,-5,0A5,5,0,1,1,5,0" fill="#ffff99" stroke-width="1.5" opacity="1"/></g><g class="mark-text role-legend-label countries_legend_labels"><text text-anchor="start" transform="translate(16,9)" font-family="sans-serif" font-size="10px" fill="#000" opacity="1">Switzerland</text></g></g><path class="foreground" aria-hidden="true" d="" display="none"/></g><g transform="translate(0,156)"><path class="background" aria-hidden="true" d="M0,0h175.8779296875v11h-175.8779296875Z" opacity="1"/><g><g class="mark-symbol role-legend-symbol countries_legend_symbols"><path transform="translate(6,6)" d="M5,0A5,5,0,1,1,-5,0A5,5,0,1,1,5,0" fill="#386cb0" stroke-width="1.5" opacity="1"/></g><g class="mark-text role-legend-label countries_legend_labels"><text text-anchor="start" transform="translate(16,9)" font-family="sans-serif" font-size="10px" fill="#000" opacity="1">The Netherlands</text></g></g><path class="foreground" aria-hidden="true" d="" display="none"/></g><g transform="translate(0,169)"><path class="background" aria-hidden="true" d="M0,0h175.8779296875v11h-175.8779296875Z" opacity="1"/><g><g class="mark-symbol role-legend-symbol countries_legend_symbols"><path transform="translate(6,6)" d="M5,0A5,5,0,1,1,-5,0A5,5,0,1,1,5,0" fill="#f0027f" stroke-width="1.5" opacity="1"/></g><g class="mark-text role-legend-label countries_legend_labels"><text text-anchor="start" transform="translate(16,9)" font-family="sans-serif" font-size="10px" fill="#000" opacity="1">The Netherlands, Spain</text></g></g><path class="foreground" aria-hidden="true" d="" display="none"/></g><g transform="translate(0,182)"><path class="background" aria-hidden="true" d="M0,0h175.8779296875v11h-175.8779296875Z" opacity="1"/><g><g class="mark-symbol role-legend-symbol countries_legend_symbols"><path transform="translate(6,6)" d="M5,0A5,5,0,1,1,-5,0A5,5,0,1,1,5,0" fill="#bf5b17" stroke-width="1.5" opacity="1"/></g><g class="mark-text role-legend-label countries_legend_labels"><text text-anchor="start" transform="translate(16,9)" font-family="sans-serif" font-size="10px" fill="#000" opacity="1">UK</text></g></g><path class="foreground" aria-hidden="true" d="" display="none"/></g><g transform="translate(0,195)"><path class="background" aria-hidden="true" d="M0,0h175.8779296875v11h-175.8779296875Z" opacity="1"/><g><g class="mark-symbol role-legend-symbol countries_legend_symbols"><path transform="translate(6,6)" d="M5,0A5,5,0,1,1,-5,0A5,5,0,1,1,5,0" fill="#666666" stroke-width="1.5" opacity="1"/></g><g class="mark-text role-legend-label countries_legend_labels"><text text-anchor="start" transform="translate(16,9)" font-family="sans-serif" font-size="10px" fill="#000" opacity="1">UK, Germany</text></g></g><path class="foreground" aria-hidden="true" d="" display="none"/></g><g transform="translate(0,208)"><path class="background" aria-hidden="true" d="M0,0h175.8779296875v11h-175.8779296875Z" opacity="1"/><g><g class="mark-symbol role-legend-symbol countries_legend_symbols"><path transform="translate(6,6)" d="M5,0A5,5,0,1,1,-5,0A5,5,0,1,1,5,0" fill="#7fc97f" stroke-width="1.5" opacity="1"/></g><g class="mark-text role-legend-label countries_legend_labels"><text text-anchor="start" transform="translate(16,9)" font-family="sans-serif" font-size="10px" fill="#000" opacity="1">UK, Spain</text></g></g><path class="foreground" aria-hidden="true" d="" display="none"/></g><g transform="translate(0,221)"><path class="background" aria-hidden="true" d="M0,0h175.8779296875v11h-175.8779296875Z" opacity="1"/><g><g class="mark-symbol role-legend-symbol countries_legend_symbols"><path transform="translate(6,6)" d="M5,0A5,5,0,1,1,-5,0A5,5,0,1,1,5,0" fill="#beaed4" stroke-width="1.5" opacity="1"/></g><g class="mark-text role-legend-label countries_legend_labels"><text text-anchor="start" transform="translate(16,9)" font-family="sans-serif" font-size="10px" fill="#000" opacity="1">US, Austria</text></g></g><path class="foreground" aria-hidden="true" d="" display="none"/></g><g transform="translate(0,234)"><path class="background" aria-hidden="true" d="M0,0h175.8779296875v11h-175.8779296875Z" opacity="1"/><g><g class="mark-symbol role-legend-symbol countries_legend_symbols"><path transform="translate(6,6)" d="M5,0A5,5,0,1,1,-5,0A5,5,0,1,1,5,0" fill="#fdc086" stroke-width="1.5" opacity="1"/></g><g class="mark-text role-legend-label countries_legend_labels"><text text-anchor="start" transform="translate(16,9)" font-family="sans-serif" font-size="10px" fill="#000" opacity="1">US, Sweden</text></g></g><path class="foreground" aria-hidden="true" d="" display="none"/></g><g transform="translate(0,247)"><path class="background" aria-hidden="true" d="M0,0h175.8779296875v11h-175.8779296875Z" opacity="1"/><g><g class="mark-symbol role-legend-symbol countries_legend_symbols"><path transform="translate(6,6)" d="M5,0A5,5,0,1,1,-5,0A5,5,0,1,1,5,0" fill="#ffff99" stroke-width="1.5" opacity="1"/></g><g class="mark-text role-legend-label countries_legend_labels"><text text-anchor="start" transform="translate(16,9)" font-family="sans-serif" font-size="10px" fill="#000" opacity="1">USA</text></g></g><path class="foreground" aria-hidden="true" d="" display="none"/></g><g transform="translate(0,260)"><path class="background" aria-hidden="true" d="M0,0h175.8779296875v11h-175.8779296875Z" opacity="1"/><g><g class="mark-symbol role-legend-symbol countries_legend_symbols"><path transform="translate(6,6)" d="M5,0A5,5,0,1,1,-5,0A5,5,0,1,1,5,0" fill="#386cb0" stroke-width="1.5" opacity="1"/></g><g class="mark-text role-legend-label countries_legend_labels"><text text-anchor="start" transform="translate(16,9)" font-family="sans-serif" font-size="10px" fill="#000" opacity="1">United Kingdom</text></g></g><path class="foreground" aria-hidden="true" d="" display="none"/></g><g transform="translate(0,273)"><path class="background" aria-hidden="true" d="M0,0h175.8779296875v11h-175.8779296875Z" opacity="1"/><g><g class="mark-symbol role-legend-symbol countries_legend_symbols"><path transform="translate(6,6)" d="M5,0A5,5,0,1,1,-5,0A5,5,0,1,1,5,0" fill="#f0027f" stroke-width="1.5" opacity="1"/></g><g class="mark-text role-legend-label countries_legend_labels"><text text-anchor="start" transform="translate(16,9)" font-family="sans-serif" font-size="10px" fill="#000" opacity="1">United States, United Kingdom</text></g></g><path class="foreground" aria-hidden="true" d="" display="none"/></g></g></g><path class="foreground" aria-hidden="true" d="" pointer-events="none" display="none"/></g></g><g class="mark-text role-legend-title" pointer-events="none"><text text-anchor="start" transform="translate(0,9)" font-family="sans-serif" font-size="11px" font-weight="bold" fill="#000" opacity="1">countries</text></g></g><path class="foreground" aria-hidden="true" d="" pointer-events="none" display="none"/></g></g></g><path class="foreground" aria-hidden="true" d="" display="none"/></g></g></g></svg>